<svg xmlns="http://www.w3.org/2000/svg" viewBox="0 0 512 512" width="512" height="512">
  <rect width="512" height="512" rx="110" fill="#0f172a"/>
  <circle cx="256" cy="256" r="180" fill="#090d16" stroke="#0ea5e9" stroke-width="6"/>
  <!-- Petrochemical Fractionation Column -->
  <rect x="226" y="110" width="60" height="250" rx="12" fill="#1e293b" stroke="#14b8a6" stroke-width="8"/>
  <line x1="226" y1="160" x2="286" y2="160" stroke="#0ea5e9" stroke-width="4"/>
  <line x1="226" y1="210" x2="286" y2="210" stroke="#0ea5e9" stroke-width="4"/>
  <line x1="226" y1="260" x2="286" y2="260" stroke="#0ea5e9" stroke-width="4"/>
  <line x1="226" y1="310" x2="286" y2="310" stroke="#0ea5e9" stroke-width="4"/>
  <!-- Reactor Flare / Tip -->
  <polygon points="256,70 240,110 272,110" fill="#f59e0b"/>
  <!-- Knowledge Nodes & Piping -->
  <path d="M 170 360 L 226 310" stroke="#38bdf8" stroke-width="6"/>
  <circle cx="170" cy="360" r="22" fill="#0ea5e9"/>
  <path d="M 342 310 L 390 360" stroke="#14b8a6" stroke-width="6"/>
  <circle cx="390" cy="360" r="22" fill="#14b8a6"/>
  <!-- Base Stand -->
  <rect x="206" y="360" width="100" height="30" rx="6" fill="#334155"/>
  <!-- Offline Shield Badge -->
  <circle cx="380" cy="140" r="28" fill="#10b981"/>
  <path d="M 368 140 L 376 148 L 394 130" fill="none" stroke="#ffffff" stroke-width="5" stroke-linecap="round" stroke-linejoin="round"/>
</svg>
